<svg width="258" height="216" viewBox="0 0 258 216" fill="none" xmlns="http://www.w3.org/2000/svg">
<rect x="29.0966" y="7.99991" width="200" height="200" rx="100" fill="#B3AEEF"/>
<path d="M93.5064 102.099L95.074 103.608L96.9952 102.587L110.32 95.5021L113.513 93.8044L111.254 90.9799C107.324 86.0638 102.786 82.0586 97.6408 78.9953C92.5052 75.9143 87.0169 73.8323 81.1904 72.7604C75.3756 71.6345 69.4099 71.5743 63.3114 72.5607C57.1909 73.4999 51.1829 75.5521 45.2951 78.6827C38.1247 82.4953 32.1973 87.3534 27.5703 93.2745C22.9551 99.1807 19.7776 105.841 18.0435 113.226C16.3061 120.624 16.1475 128.502 17.5105 136.824L17.512 136.833C18.8981 145.137 21.9253 153.626 26.5329 162.292C32.6738 173.841 40.0904 182.888 48.8407 189.296L48.849 189.302C57.6081 195.671 67.0495 199.257 77.1342 199.958L77.1408 199.959C87.2746 200.642 97.3021 198.296 107.173 193.048C116.018 188.345 122.973 182.271 127.928 174.791L127.931 174.787C132.894 167.263 135.525 158.963 135.806 149.947C136.123 140.858 133.771 131.711 128.9 122.55L122.812 111.099L121.403 108.451L118.755 109.859L78.1566 131.445L75.5077 132.854L76.9161 135.503L83.0046 146.953L84.413 149.602L87.0618 148.194L112.38 134.732C114.479 139.612 115.464 144.314 115.411 148.856L115.411 148.864C115.36 154.479 113.851 159.576 110.878 164.221C107.928 168.803 103.655 172.634 97.9352 175.675C91.8021 178.936 85.5536 180.321 79.1368 179.903C72.7707 179.487 66.5686 177.144 60.4979 172.723C54.4957 168.352 49.0795 161.78 44.3223 152.833C39.5631 143.882 37.1252 135.722 36.8253 128.315C36.5218 120.817 37.9862 114.399 41.1019 108.949C44.247 103.447 48.7001 99.1569 54.5325 96.0557C58.145 94.1349 61.6654 92.889 65.0995 92.276C68.553 91.6595 71.8806 91.6447 75.1 92.2114L75.1097 92.2132L75.1195 92.2148C78.3958 92.7693 81.554 93.8768 84.604 95.5538L84.6229 95.5641L84.6419 95.5742C87.7224 97.2108 90.6784 99.3775 93.5064 102.099ZM218.828 37.807L221.988 36.1271L219.782 33.3092C215.697 28.0896 211.068 23.8982 205.883 20.7858C200.725 17.6664 195.252 15.5859 189.476 14.5644C183.701 13.5117 177.846 13.5023 171.929 14.5258C166.04 15.5318 160.274 17.5475 154.637 20.5448C145.093 25.6193 137.755 32.5201 132.732 41.2572C127.713 49.987 125.391 59.8196 125.7 70.667C126.01 81.5709 129.312 92.8168 135.458 104.375C141.604 115.934 149.081 124.96 157.947 131.315C166.767 137.636 176.217 141.21 186.261 141.931C196.313 142.652 206.137 140.428 215.681 135.353C221.319 132.356 226.214 128.702 230.341 124.382C234.496 120.052 237.77 115.214 240.145 109.874L240.149 109.866L240.152 109.859C242.515 104.466 243.841 98.7493 244.138 92.7282C244.438 86.6622 243.554 80.4836 241.529 74.2102L240.429 70.801L237.266 72.4828L224.358 79.3461L222.202 80.4923L222.886 82.8357C223.981 86.5839 224.329 90.1662 223.977 93.6053L223.976 93.6137C223.632 97.0653 222.705 100.309 221.195 103.362C219.691 106.382 217.69 109.13 215.173 111.611C212.642 114.105 209.737 116.229 206.444 117.98C200.462 121.161 194.306 122.505 187.919 122.07C181.624 121.621 175.453 119.263 169.376 114.839C163.406 110.448 158.005 103.865 153.247 94.9166C148.49 85.9686 146.052 77.8102 145.751 70.4051C145.481 62.8933 146.977 56.4583 150.125 50.9879C153.336 45.45 157.893 41.0982 163.874 37.9178C167.167 36.1666 170.553 34.9458 174.036 34.2428C177.491 33.5453 180.89 33.4388 184.248 33.9124L184.27 33.9155L184.292 33.9182C187.639 34.3404 190.829 35.3659 193.879 37.0085L193.89 37.0146L193.901 37.0205C196.916 38.6118 199.686 40.8967 202.201 43.9346L203.761 45.8187L205.92 44.6704L218.828 37.807Z" fill="#514F91" stroke="#272656" stroke-width="6"/>
</svg>
